<svg width="60" height="60" viewBox="0 0 60 60" fill="none" xmlns="http://www.w3.org/2000/svg">
<path d="M24.4517 9.15956C29.0778 7.7337 33.5431 6.95263 37.609 7.00223C41.7042 7.0512 45.4717 7.93585 48.6846 9.85833C50.646 11.1257 51.886 12.322 53.0424 14.1134C54.1393 15.954 54.6285 17.5379 54.7534 19.7172C54.8012 22.0116 54.4078 23.8466 53.3646 26.2223C52.2201 28.6206 50.9499 30.4178 48.8101 32.5806C46.6643 34.6503 44.7085 36.092 41.877 37.6546C40.0525 38.6231 38.4353 39.3372 36.6287 39.9493C36.6495 39.8973 36.6707 39.8451 36.6911 39.792C37.1262 38.6602 37.3437 37.2672 37.3437 35.613C37.3437 34.7966 37.2668 34.0456 37.1142 33.3598C37.5057 33.1736 37.9034 32.9721 38.3179 32.7497C40.1479 31.7282 41.4237 30.7886 42.825 29.4286C44.2079 28.0251 45.0367 26.8616 45.7996 25.2997C46.485 23.7539 46.7532 22.5521 46.7354 21.0556C46.6582 19.6303 46.3539 18.5922 45.6445 17.3854C44.8935 16.2058 44.0887 15.4189 42.807 14.5887C40.6668 13.3107 38.1212 12.7478 35.3015 12.77C32.4937 12.792 29.3818 13.3929 26.1211 14.4304C21.5187 16.0579 18.3297 17.9477 14.9734 21.0448C11.7183 24.2668 10.0733 27.0474 9.27437 30.7341C8.68406 34.4699 9.35796 37.1351 11.6289 40.0086C14.1508 42.7886 17.018 44.2413 21.614 45.0169C26.3353 45.6124 30.2579 45.1589 35.26 43.4494C35.3373 43.4223 35.6353 43.318 35.4926 43.3674C41.0306 41.5541 44.822 39.473 49.0007 36.0046C52.852 32.6019 55.1231 29.6528 56.846 25.7199C58.0743 22.5138 58.539 19.9684 57.9607 17.0136C59.9218 20.395 60.4645 24.3113 59.606 28.3252C58.7298 32.4492 56.3934 36.6818 52.661 40.5492C49.5196 43.81 45.6146 46.5685 41.2989 48.66C36.9409 50.774 32.184 52.1992 27.4206 52.7673C24.1779 53.1278 21.0003 53.0679 17.5487 52.5982C14.2283 52.0082 11.5336 51.1618 9.23843 49.9489C6.95531 48.7418 5.05969 47.1692 3.31266 45.1209C1.75094 43.0069 0.773597 40.9859 0.308285 38.8065C-0.14484 36.6659 -0.0912463 34.3721 0.421566 31.7225C1.08313 29.0953 2.025 26.807 3.38984 24.6168C4.73187 22.4539 6.50843 20.3726 8.82718 18.1553C13.5962 13.9169 18.073 11.339 24.4517 9.15956ZM30.2579 14.163C35.5937 13.3763 40.3092 13.9386 43.0696 16.8226C43.9396 17.8003 44.3926 18.6685 44.685 19.8865C44.9229 21.1322 44.8693 22.137 44.476 23.4861C43.4339 26.6446 40.3409 29.7695 36.6261 31.8815C36.3328 31.2636 35.9195 30.7119 35.3857 30.2266C34.6895 29.5736 33.7648 29.0512 32.6117 28.6594C31.4586 28.2459 30.0226 27.952 28.304 27.7779L25.4975 27.5168V25.5907C26.52 25.46 27.7601 25.3948 29.2178 25.3948C30.6754 25.3948 32.6226 25.5907 35.0593 25.9825L36.0384 19.7142C33.2318 19.0613 30.0989 18.735 26.6397 18.7349C24.8992 18.7349 23.4197 18.8763 22.2014 19.1592C21.0048 19.4423 20.0256 19.932 19.2642 20.6284C18.5028 21.3031 17.948 22.2064 17.6 23.3379C17.2519 24.448 17.0778 25.841 17.0778 27.5168C17.0778 28.7356 17.2083 29.8021 17.4694 30.7161C17.7522 31.6085 18.209 32.3811 18.84 33.034C19.4926 33.6652 20.352 34.1659 21.4181 34.5359C22.2558 34.8266 23.2545 35.0496 24.4145 35.2059C25.1422 35.3783 25.9386 35.4808 26.8545 35.5295C27.2628 35.5423 27.6548 35.5456 28.0372 35.5392L28.924 35.613V37.572C28.3367 37.659 27.6622 37.7244 26.9008 37.7678C26.1611 37.7896 25.3017 37.8004 24.3226 37.8004C22.3864 37.8004 20.2215 37.5067 17.8284 36.919L17.3212 39.872C16.7106 39.5486 16.1161 39.1771 15.5217 38.7523C13.1433 36.8564 12.0223 34.9776 11.6289 32.165C11.3958 29.3796 11.9867 27.1403 13.7214 24.3221C15.5453 21.5855 17.5308 19.7012 20.708 17.7075C23.9154 15.8229 26.6222 14.8073 30.2579 14.163Z" fill="white"/>
</svg>
