<svg xmlns="http://www.w3.org/2000/svg" fill="none" viewBox="0 0 100 100" role="img" aria-labelledby="logo-title logo-desc">
  <title id="logo-title">Shrinkray Labs</title>
  <desc id="logo-desc">Shrinkray Labs - A software development company that specializes in building custom software solutions for businesses.</desc>
  <g class="logoISO">
    <path d="M0 0h100v100H0z"/>
    <path fill="#1ad9d9" d="M41 23a59 59 0 0 1 17.8-3c5.5 0 10.6 1.3 15 3.9a18 18 0 0 1 5.8 5.7c1.5 2.5 2.1 4.6 2.3 7.5 0 3.1-.4 5.6-1.9 8.8a29.2 29.2 0 0 1-6.1 8.6 41 41 0 0 1-16.5 10l.1-.3a15.8 15.8 0 0 0 .6-8.7l1.6-.8c2.5-1.4 4.2-2.6 6.1-4.5 1.9-1.9 3-3.4 4-5.5s1.3-3.7 1.3-5.8a10 10 0 0 0-1.5-4.9c-1-1.6-2-2.7-3.8-3.8a19.2 19.2 0 0 0-10.1-2.4 42.8 42.8 0 0 0-27.5 11.1c-4.4 4.4-6.6 8.1-7.7 13-.8 5.1.1 8.7 3.2 12.6 3.4 3.7 7.3 5.7 13.5 6.7A38.2 38.2 0 0 0 55.9 69a51.2 51.2 0 0 0 18.3-10c5.2-4.5 8.2-8.5 10.5-13.8a20 20 0 0 0 1.5-11.7 21 21 0 0 1 2.3 15.2A34.5 34.5 0 0 1 79 65.2a59.5 59.5 0 0 1-34 16.5c-4.5.5-8.7.4-13.4-.2a38 38 0 0 1-11.2-3.6c-3.1-1.6-5.7-3.8-8-6.5a21.8 21.8 0 0 1-4-8.5c-.7-3-.6-6 0-9.6 1-3.5 2.2-6.6 4-9.6A45 45 0 0 1 20 35 57.2 57.2 0 0 1 41 23Zm7.8 6.7c7.3-1.1 13.6-.3 17.3 3.5a8.8 8.8 0 0 1 2 9 22.8 22.8 0 0 1-10.7 11.3c-.4-.8-1-1.5-1.6-2.2-1-.9-2.2-1.6-3.8-2.1a25 25 0 0 0-5.8-1.2l-3.8-.3V45a40.5 40.5 0 0 1 13 .5l1.3-8.5a56.2 56.2 0 0 0-18.7-.7c-1.6.4-3 1-4 2-1 .9-1.8 2.1-2.2 3.6a19 19 0 0 0-.2 10c.4 1.2 1 2.2 1.8 3 1 1 2 1.6 3.5 2.1 1.1.4 2.5.7 4 1a18.5 18.5 0 0 0 5 .4H47v2.7a31 31 0 0 1-6.2.3c-2.6 0-5.5-.4-8.7-1.2l-.7 4-2.4-1.5c-3.3-2.6-4.8-5-5.3-8.9a16 16 0 0 1 2.8-10.6c2.5-3.6 5.2-6.2 9.5-8.9 4.3-2.5 8-3.9 12.8-4.7Z"/>
  </g>
</svg>