<svg xmlns="http://www.w3.org/2000/svg" width="512" height="512" viewBox="0 0 60 60" fill="none">
	<path
		fill-rule="evenodd"
		clip-rule="evenodd"
		d="M17.3585 39.4848L17.5935 38.0916C20.9654 38.9345 24.0155 39.3559 26.7437 39.3559C28.1232 39.3559 29.334 39.3403 30.3763 39.3091C31.4492 39.2466 32.3994 39.153 33.2271 39.0281V36.2187L28.2611 35.7972C26.0234 35.5787 24.1534 35.2041 22.6514 34.6734C21.1494 34.1427 19.9385 33.4248 19.0189 32.5195C18.1299 31.583 17.4862 30.4748 17.0877 29.1949C16.7198 27.8838 16.5359 26.3542 16.5359 24.6061C16.5359 23.4734 16.5904 22.4308 16.6993 21.4783C15.9013 22.3361 15.1851 23.2655 14.4927 24.322C12.7869 27.1402 12.2059 29.3796 12.435 32.165C12.822 34.9776 13.9242 36.8565 16.2629 38.7522C16.6269 39.0167 16.9908 39.2604 17.3585 39.4848ZM43.0728 14.5762L43.251 13.415C39.2966 12.4785 34.8824 12.0102 30.0084 12.0102C27.5561 12.0102 25.4716 12.2132 23.755 12.619C22.069 13.0248 20.6896 13.7271 19.6166 14.7261C18.5437 15.6938 17.7621 16.9893 17.2716 18.6125C17.1422 19.0325 17.03 19.4806 16.9347 19.957C16.5316 20.3025 16.129 20.6645 15.7238 21.0446C12.523 24.2669 10.9052 27.0473 10.1196 30.7341C9.53911 34.4699 10.202 37.1351 12.435 40.0086C13.709 41.4367 15.0725 42.5145 16.7101 43.3302L16.0301 47.3629C18.0839 47.8312 20.2144 48.1901 22.4215 48.4399C24.6286 48.6898 26.9277 48.8145 29.3187 48.8145C30.269 48.8145 31.3265 48.7834 32.4914 48.7209C33.6869 48.6898 34.8671 48.5804 36.0319 48.3931C37.1969 48.2058 38.3005 47.9248 39.3426 47.5502C40.3847 47.1446 41.2584 46.598 41.9635 45.9114C42.8217 45.0685 43.5574 43.8354 44.1706 42.2122C44.5079 41.3196 44.7522 40.3137 44.9038 39.1945C46.3443 38.27 47.7406 37.2229 49.184 36.0046C52.971 32.6018 55.2043 29.6528 56.8988 25.7199C58.1065 22.5138 58.5635 19.9684 57.9948 17.0136C59.9231 20.3949 60.4566 24.3112 59.6128 28.3252C58.751 32.4491 56.4533 36.6818 52.7835 40.5492C49.6941 43.8101 45.8543 46.5684 41.6108 48.6598C37.3252 50.7738 32.6476 52.1991 27.9636 52.7672C24.775 53.1279 21.6503 53.0679 18.2561 52.5982C14.991 52.0081 12.3414 51.1616 10.0845 49.9486C7.83935 48.7417 5.97535 47.1691 4.25741 45.1208C2.72178 43.0068 1.76067 40.9857 1.30311 38.8062C0.85762 36.6657 0.910221 34.372 1.4146 31.7226C2.06505 29.0953 2.99126 26.807 4.33335 24.6169C5.65294 22.4539 7.39998 20.3726 9.68003 18.1554C14.3697 13.9168 18.7718 11.3389 25.0442 9.15951C29.5932 7.73374 33.9841 6.95265 37.9822 7.00222C42.0091 7.05114 45.7139 7.93583 48.8733 9.85835C50.802 11.1257 52.0212 12.322 53.1585 14.1133C54.2369 15.9539 54.7179 17.538 54.8408 19.7171C54.8878 22.0116 54.5009 23.8466 53.4754 26.2222C52.3499 28.6205 51.1009 30.4176 48.9965 32.5803C47.7036 33.8488 46.4805 34.8814 45.0866 35.8505C45.0568 34.3457 44.8435 33.0012 44.4465 31.8171C44.1674 30.9206 43.7377 30.1083 43.158 29.3803C44.49 27.9983 45.2946 26.8437 46.0364 25.2996C46.71 23.7537 46.974 22.5522 46.9564 21.0553C46.8806 19.6301 46.5814 18.5922 45.8838 17.3851C45.1456 16.2056 44.3538 15.4189 43.0937 14.5888C43.0865 14.5846 43.0796 14.5804 43.0728 14.5762ZM42.8084 16.2983L41.8716 22.4053C38.4384 21.8435 35.6947 21.5625 33.6409 21.5625C31.5871 21.5625 29.8398 21.6562 28.3991 21.8435V24.6061L32.3534 24.9807C34.7751 25.2305 36.7982 25.6519 38.423 26.245C39.7999 26.7212 40.9455 27.3319 41.8601 28.0771C43.2054 26.6368 44.2223 25.0655 44.735 23.4859C45.1215 22.1368 45.1743 21.1322 44.9404 19.8865C44.6527 18.6685 44.2073 17.8003 43.3516 16.8225C43.1784 16.6384 42.9974 16.4637 42.8084 16.2983Z"
		fill="#7000FF" />
	<style>
		@media (prefers-color-scheme: dark) {
			path { fill: #11A1E9; }
		}
	</style>
</svg>